<svg xmlns="http://www.w3.org/2000/svg" viewBox="0 0 218.3 116.4" style="enable-background:new 0 0 218.3 116.4" xml:space="preserve"><path d="M156.5 116.4c1.5 0 2.9-.5 4-1.6l56-50.4c1.1-1.1 1.8-2.6 1.8-4.1 0-1.6-.7-3.1-1.8-4.1l-56-50.4c-1-1.3-2.6-2.1-4.2-2.1-1.7-.1-3.2.6-4.4 1.9-1.1 1.2-1.6 2.9-1.4 4.5.2 1.6 1.2 3.1 2.6 4l45.1 40.6h-131c-24 0-44.6-15.6-56.7-36.4-1.5-2.7-5-3.6-7.7-2.1s-3.6 5-2.1 7.7c13.7 23.6 37.7 42 66.5 42h131.1l-45.1 40.8c-1.7 1.5-2.3 3.9-1.6 6 .7 2 2.6 3.5 4.9 3.7z" style="fill:#bfbfbf"/></svg>
