<?xml version="1.0" encoding="utf-8"?>
<!-- Generator: Adobe Illustrator 26.0.2, SVG Export Plug-In . SVG Version: 6.00 Build 0)  -->
<svg version="1.1" id="Camada_1" xmlns="http://www.w3.org/2000/svg" xmlns:xlink="http://www.w3.org/1999/xlink" x="0px" y="0px"
	 viewBox="0 0 326.3 331.4" style="enable-background:new 0 0 326.3 331.4;" xml:space="preserve">
<style type="text/css">
	.st0{fill:#FFFFFF;}
</style>
<g>
	<path class="st0" d="M168.9,331.4c-47.6,0-93.2-20.2-125.2-55.5C13.5,242.5-2,199.3,0.2,154.2S22,67.7,55.5,37.4
		c19.1-17.3,41.3-29.8,65.9-37c4.1-1.2,8.6,0.1,11.4,3.2c2.9,3.2,3.7,7.7,2.1,11.7c-21.2,52.5-10.7,111.2,27.3,153.2
		c27.7,30.6,67.3,48.1,108.6,48.1c14,0,27.8-2,41.2-5.9c4.1-1.2,8.6,0.1,11.4,3.2c2.9,3.2,3.7,7.7,2.1,11.7
		c-9.6,23.8-24.1,44.6-43.2,61.9C251.1,315.8,210.9,331.4,168.9,331.4L168.9,331.4z M106.8,29.8C93.7,35.9,81.5,44,70.5,54
		c-29,26.3-46,62.3-47.9,101.3c-1.9,39.1,11.5,76.6,37.8,105.6C88,291.4,127.6,309,168.9,309c36.4,0,71.3-13.5,98.3-37.9
		c11-9.9,20.2-21.2,27.6-33.7c-8,1.1-16,1.7-24.1,1.7c-47.6,0-93.2-20.2-125.2-55.5C107.9,141.9,93.7,83.7,106.8,29.8L106.8,29.8z"
		/>
</g>
</svg>
