<?xml version="1.0" encoding="utf-8"?>
<!-- Generator: Adobe Illustrator 26.0.2, SVG Export Plug-In . SVG Version: 6.00 Build 0)  -->
<svg version="1.1" id="Camada_1" xmlns="http://www.w3.org/2000/svg" xmlns:xlink="http://www.w3.org/1999/xlink" x="0px" y="0px"
	 viewBox="0 0 385.9 385.9" style="enable-background:new 0 0 385.9 385.9;" xml:space="preserve">
<g>
	<path d="M193,85.6c29.6,0,56.4,12,75.9,31.5s31.5,46.3,31.5,75.9s-12,56.4-31.5,75.9c-19.5,19.5-46.3,31.5-75.9,31.5
		c-29.6,0-56.4-12-75.9-31.5c-19.5-19.5-31.5-46.3-31.5-75.9s12-56.4,31.5-75.9S163.4,85.6,193,85.6z M244.9,141.1
		c-13.3-13.3-31.7-21.6-51.9-21.6s-38.6,8.2-51.9,21.4c-13.3,13.3-21.6,31.7-21.6,52s8.2,38.6,21.4,51.9
		c13.3,13.3,31.6,21.4,51.9,21.4s38.6-8.2,51.9-21.4c13.3-13.3,21.4-31.6,21.4-51.9S258.2,154.3,244.9,141.1z"/>
	<path d="M209.9,62.2c0,9.3-7.6,16.9-16.9,16.9c-9.3,0-16.9-7.6-16.9-16.9V15.9C176.1,6.5,183.7-1,193-1c9.3,0,16.9,7.6,16.9,16.9
		V62.2z"/>
	<path d="M114,83.5c6.6,6.6,6.6,17.4,0,24s-17.4,6.6-24,0L57.3,74.8c-6.6-6.6-6.6-17.4,0-24s17.4-6.6,24,0L114,83.5L114,83.5z"/>
	<path d="M63.3,176.1c9.3,0,16.9,7.6,16.9,16.9c0,9.3-7.6,16.9-16.9,16.9H16.9C7.6,210,0,202.4,0,193.1c0-9.3,7.6-16.9,16.9-16.9
		h46.4V176.1z"/>
	<path d="M84.6,271.9c6.6-6.6,17.4-6.6,24,0c6.6,6.6,6.6,17.4,0,24l-32.8,32.8c-6.6,6.6-17.4,6.6-24,0c-6.6-6.6-6.6-17.4,0-24
		L84.6,271.9L84.6,271.9z"/>
	<path d="M173.6,324.3c0-9.3,7.6-16.9,16.9-16.9c9.3,0,16.9,7.6,16.9,16.9v46.4c0,9.3-7.6,16.9-16.9,16.9c-9.3,0-16.9-7.6-16.9-16.9
		V324.3z"/>
	<path d="M265.5,303.1c-6.6-6.6-6.6-17.4,0-24c6.6-6.6,17.4-6.6,24,0l32.8,32.8c6.6,6.6,6.6,17.4,0,24c-6.6,6.6-17.4,6.6-24,0
		L265.5,303.1L265.5,303.1z"/>
	<path d="M322.6,209.7c-9.3,0-16.9-7.6-16.9-16.9c0-9.3,7.6-16.9,16.9-16.9H369c9.3,0,16.9,7.6,16.9,16.9c0,9.3-7.6,16.9-16.9,16.9
		H322.6z"/>
	<path d="M296,107.5c-6.6,6.6-17.4,6.6-24,0c-6.6-6.6-6.6-17.4,0-24l32.8-32.8c6.6-6.6,17.4-6.6,24,0s6.6,17.4,0,24L296,107.5
		L296,107.5z"/>
</g>
</svg>
